Coordinates
version=1
nRows=22
nColumns=24
inDegrees=yes

Units are S.I. units (second, meters, Newtons, ...)
Angles are in degrees.

endheader
time	pelvis_tilt	pelvis_list	pelvis_rotation	pelvis_tx	pelvis_ty	pelvis_tz	hip_flexion_r	hip_adduction_r	hip_rotation_r	knee_angle_r	ankle_angle_r	subtalar_angle_r	mtp_angle_r	hip_flexion_l	hip_adduction_l	hip_rotation_l	knee_angle_l	ankle_angle_l	subtalar_angle_l	mtp_angle_l	lumbar_extension	lumbar_bending	lumbar_rotation
      1.36683333	      1.69226639	      8.78821926	     -3.68950385	      0.35514234	      1.02073753	      0.26707974	     12.50580823	     -8.84825587	      1.33221454	    -65.42271110	      4.79079954	    -16.31113085	     -0.35042792	      5.31086362	     12.60846772	      1.11635016	     -9.43081454	     -0.67675683	    -18.08505174	      7.34686359	     -4.54076610	    -10.68254452	      6.38187890
      1.37100000	      1.67027067	      8.67113850	     -3.52938466	      0.36027544	      1.02141351	      0.26675694	     13.01498121	     -8.67435758	      1.20508192	    -64.94316443	      5.02729971	    -16.28296342	     -0.39961976	      4.80175383	     12.53498960	      1.40384258	     -9.07865953	     -0.65667763	    -18.16880502	      7.22379792	     -4.58116032	    -10.54963968	      6.08721638
      1.37516667	      1.64105090	      8.54265911	     -3.36819515	      0.36541984	      1.02205111	      0.26644922	     13.51522384	     -8.49113636	      1.06907660	    -64.40808351	      5.24872153	    -16.24720990	     -0.40945161	      4.31966237	     12.43662860	      1.60953141	     -8.76903308	     -0.56651068	    -18.10622964	      7.19277971	     -4.60169025	    -10.39199739	      5.96870843
      1.37933333	      1.66755380	      8.44062014	     -3.20561985	      0.37052923	      1.02272378	      0.26613622	     13.94722635	     -8.35263325	      0.92135078	    -63.83060431	      5.43883827	    -16.18820609	     -0.44326095	      3.75059522	     12.37748203	      1.93796977	     -8.39803364	     -0.51094438	    -18.23412137	      7.09795388	     -4.69964268	    -10.28622936	      5.53920815
      1.38350000	      1.65151424	      8.32606508	     -3.03817457	      0.37565011	      1.02330511	      0.26583832	     14.41000144	     -8.19590874	      0.77261724	    -63.20520492	      5.63126074	    -16.15684623	     -0.47550737	      3.24109272	     12.29272522	      2.21135853	     -8.05367728	     -0.46090820	    -18.29157473	      7.00563856	     -4.73968138	    -10.15584171	      5.27007731
      1.38766667	      1.65961149	      8.21880357	     -2.87452494	      0.38076036	      1.02387380	      0.26554704	     14.83627478	     -8.05576891	      0.61959627	    -62.53897420	      5.81714453	    -16.12262718	     -0.50786863	      2.70586968	     12.21226961	      2.47807750	     -7.70503672	     -0.41118224	    -18.33857794	      6.91319577	     -4.80788049	    -10.03853742	      4.98783226
      1.39183333	      1.63690092	      8.11453626	     -2.71140787	      0.38587666	      1.02436529	      0.26527118	     15.28469652	     -7.91578103	      0.47476312	    -61.83074261	      5.98425499	    -16.11133823	     -0.54447027	      2.20611562	     12.12937883	      2.74388576	     -7.35981650	     -0.36164540	    -18.39419369	      6.81286937	     -4.83670665	     -9.92601914	      4.70031513
      1.39600000	      1.64554940	      8.01529730	     -2.55157199	      0.39097394	      1.02485119	      0.26499951	     15.68846587	     -7.79070465	      0.32130601	    -61.08417163	      6.14769652	    -16.10054877	     -0.58152001	      1.67392491	     12.04890608	      2.99717074	     -7.01043471	     -0.31100977	    -18.43059491	      6.71437334	     -4.90391268	     -9.81413443	      4.43151552
      1.40016667	      1.64290516	      7.91778520	     -2.39232628	      0.39607150	      1.02529617	      0.26474685	     16.09014337	     -7.66733862	      0.17132189	    -60.29340941	      6.28992520	    -16.10455015	     -0.62082975	      1.15689229	     11.96450109	      3.24722564	     -6.66530991	     -0.26020146	    -18.47020721	      6.61582730	     -4.95482373	     -9.70684622	      4.15880118
      1.40433333	      1.61079105	      7.81428140	     -2.22962732	      0.40117699	      1.02565830	      0.26450556	     16.50813167	     -7.53696578	      0.02039364	    -59.46241846	      6.44650214	    -16.10000514	     -0.64046811	      0.68905437	     11.86518276	      3.44046980	     -6.35315103	     -0.20774065	    -18.43185615	      6.56833664	     -4.96485822	     -9.59533784	      4.00011895
      1.40850000	      1.63143533	      7.74073535	     -2.08508068	      0.40626289	      1.02601905	      0.26427284	     16.87123616	     -7.45004500	     -0.12407221	    -58.61295214	      6.54017979	    -16.13609171	     -0.68237355	      0.14083734	     11.80295780	      3.70501536	     -5.98809888	     -0.14020962	    -18.51684122	      6.47610922	     -5.04198151	     -9.50803469	      3.64246798
      1.41266667	      1.60209952	      7.64902928	     -1.93081940	      0.41135079	      1.02630559	      0.26406210	     17.26412396	     -7.33637151	     -0.26495448	    -57.71145467	      6.67139074	    -16.14216319	     -0.70751442	     -0.32625685	     11.70955903	      3.89905151	     -5.67479075	     -0.09827626	    -18.49602201	      6.42278131	     -5.05855940	     -9.41318890	      3.47276892
      1.41683333	      1.60133664	      7.56067751	     -1.78316469	      0.41643711	      1.02658729	      0.26385831	     17.61376373	     -7.23282408	     -0.40861744	    -56.77396791	      6.75511318	    -16.18296522	     -0.73881968	     -0.83374193	     11.61898593	      4.11724822	     -5.34151333	     -0.03644632	    -18.51199473	      6.36281219	     -5.10666509	     -9.31536252	      3.22575812
      1.42100000	      1.58415291	      7.50040657	     -1.65178713	      0.42151175	      1.02676456	      0.26369018	     17.98570622	     -7.15800124	     -0.52933911	    -55.82944586	      6.84291129	    -16.21053255	     -0.76739387	     -1.31742583	     11.55480585	      4.31322747	     -5.01132736	      0.02229175	    -18.51866012	      6.31004931	     -5.13498207	     -9.24925259	      3.00516217
      1.42516667	      1.59927283	      7.43981283	     -1.52782835	      0.42658434	      1.02695912	      0.26351854	     18.30810535	     -7.08868251	     -0.65002235	    -54.84568380	      6.86586645	    -16.28669106	     -0.82376633	     -1.85124341	     11.49248772	      4.55795386	     -4.65019119	      0.08591000	    -18.62172779	      6.20963535	     -5.20302043	     -9.18656471	      2.65869432
      1.42933333	      1.58009899	      7.38825366	     -1.40432207	      0.43165279	      1.02704431	      0.26336785	     18.65965956	     -7.02864854	     -0.76410342	    -53.84124957	      6.92359372	    -16.31245813	     -0.88037037	     -2.32839531	     11.43330294	      4.76017794	     -4.32530218	      0.14232342	    -18.66583788	      6.10857910	     -5.22542685	     -9.13226565	      2.43341565
      1.43350000	      1.55872016	      7.33386180	     -1.28844026	      0.43672964	      1.02710294	      0.26323981	     18.99764271	     -6.96447605	     -0.87225470	    -52.79914293	      6.95388224	    -16.34956007	     -0.93296054	     -2.79837452	     11.36740019	      4.93396968	     -4.00852299	      0.21239137	    -18.67824362	      6.01795526	     -5.24149212	     -9.07580350	      2.23352749
      1.43766667	      1.52389193	      7.27435497	     -1.17637653	      0.44180964	      1.02710348	      0.26312146	     19.33436699	     -6.89463184	     -0.97098879	    -51.72297011	      6.99360544	    -16.35095448	     -0.96232226	     -3.24033445	     11.29207647	      5.07279359	     -3.71763529	      0.27787809	    -18.64120992	      5.96915554	     -5.24014469	     -9.01080530	      2.10296011
      1.44183333	      1.50839006	      7.22317918	     -1.07525539	      0.44688751	      1.02708715	      0.26302275	     19.63970595	     -6.83534692	     -1.06430142	    -50.61850928	      6.98359473	    -16.38473256	     -0.99873688	     -3.70975762	     11.22578187	      5.23255157	     -3.41280360	      0.36107714	    -18.64561159	      5.90999768	     -5.26042206	     -8.95360127	      1.90581847
      1.44600000	      1.46306265	      7.18484306	     -0.98191808	      0.45197253	      1.02696762	      0.26294072	     19.97319149	     -6.78896482	     -1.14567764	    -49.50321028	      6.97053920	    -16.39709517	     -1.03332804	     -4.14294860	     11.17177820	      5.38171601	     -3.11457563	      0.44406224	    -18.65493003	      5.85313466	     -5.24383304	     -8.91712421	      1.72513161
      1.45016667	      1.45817146	      7.15422871	     -0.90358811	      0.45704908	      1.02685346	      0.26288483	     20.25498786	     -6.75175382	     -1.21907955	    -48.36715309	      6.92327132	    -16.43675320	     -1.08954582	     -4.63076679	     11.12590545	      5.55513353	     -2.79162749	      0.53133962	    -18.71245444	      5.75528243	     -5.28594347	     -8.89529817	      1.47680041
      1.45433333	      1.39270628	      7.12239947	     -0.82614064	      0.46214037	      1.02662266	      0.26283101	     20.58902670	     -6.71543696	     -1.29164846	    -47.20556220	      6.90895288	    -16.37214800	     -1.11361073	     -5.02911830	     11.07545694	      5.65931335	     -2.51551050	      0.61803750	    -18.68041683	      5.71238044	     -5.24563156	     -8.85836116	      1.38379557
